<svg xmlns="http://www.w3.org/2000/svg" width="23.61" height="23.61" viewBox="0 0 23.61 23.61">
  <g id="Group_121" data-name="Group 121" transform="translate(0)">
    <path id="Path_170" data-name="Path 170" d="M12.624,17.938a1.475,1.475,0,0,0,2.087,0l5.09-5.09a1.475,1.475,0,1,0-2.087-2.087l-2.571,2.571V1.476a1.476,1.476,0,0,0-2.951,0V13.333L9.62,10.762a1.475,1.475,0,1,0-2.087,2.087Z" transform="translate(-1.862)" fill="#1a2b3c"/>
    <path id="Path_171" data-name="Path 171" d="M22.134,21a1.476,1.476,0,0,0-1.476,1.476v2.213a1.477,1.477,0,0,1-1.476,1.476H4.427a1.477,1.477,0,0,1-1.476-1.476V22.476a1.476,1.476,0,0,0-2.951,0v2.213a4.431,4.431,0,0,0,4.427,4.427H19.183a4.431,4.431,0,0,0,4.427-4.427V22.476A1.476,1.476,0,0,0,22.134,21Z" transform="translate(0 -5.506)" fill="#1a2b3c"/>
  </g>
</svg>
