<svg xmlns="http://www.w3.org/2000/svg" width="24.981" height="24.981" viewBox="0 0 24.981 24.981">
  <path id="Path_39" data-name="Path 39" d="M19.126,0H5.855A5.862,5.862,0,0,0,0,5.855V19.126a5.862,5.862,0,0,0,5.855,5.855H19.126a5.862,5.862,0,0,0,5.855-5.855V5.855A5.862,5.862,0,0,0,19.126,0Zm3.9,19.126a3.908,3.908,0,0,1-3.9,3.9H5.855a3.908,3.908,0,0,1-3.9-3.9V5.855a3.908,3.908,0,0,1,3.9-3.9H19.126a3.908,3.908,0,0,1,3.9,3.9ZM12.491,6.977A5.513,5.513,0,1,0,18,12.491,5.52,5.52,0,0,0,12.491,6.977Zm0,9.075a3.562,3.562,0,1,1,3.562-3.562A3.566,3.566,0,0,1,12.491,16.053ZM20.167,6.034a1.22,1.22,0,1,1-1.22-1.22A1.22,1.22,0,0,1,20.167,6.034Zm0,0" fill="#708090"/>
</svg>
