<svg xmlns="http://www.w3.org/2000/svg" width="26.647" height="24.981" viewBox="0 0 26.647 24.981">
  <g id="Group_44" data-name="Group 44" transform="translate(0 -16)">
    <g id="Group_41" data-name="Group 41" transform="translate(8.587 23.807)">
      <path id="Path_35" data-name="Path 35" d="M183.054,174.047v0c-.009-2.823-.8-4.955-2.338-6.335a7.206,7.206,0,0,0-5.494-1.593,5.692,5.692,0,0,0-3.092,1.262v-.6a.781.781,0,0,0-.781-.781h-5.569a.781.781,0,0,0-.781.781v15.613a.781.781,0,0,0,.781.781h5.569a.781.781,0,0,0,.781-.781v-8.927c0-.791,1.035-1.57,2.13-1.605.749-.023,1.663.286,1.773,1.889v8.643a.781.781,0,0,0,.781.781h5.465a.781.781,0,0,0,.781-.781Zm-5.459,7.567s0-7.92,0-7.937a3.64,3.64,0,0,0-1.128-2.606,3.169,3.169,0,0,0-2.254-.769c-1.759.055-3.643,1.341-3.643,3.165v8.146h-4.007V167.561h4.007v1.8a.781.781,0,0,0,1.387.492,4.655,4.655,0,0,1,3.433-2.183,5.644,5.644,0,0,1,4.286,1.2c1.2,1.073,1.81,2.815,1.818,5.176l0,7.565Z" transform="translate(-165 -166)" fill="#708090"/>
    </g>
    <g id="Group_42" data-name="Group 42" transform="translate(0 23.807)">
      <path id="Path_36" data-name="Path 36" d="M6.245,166H.781a.781.781,0,0,0-.781.781v15.613a.781.781,0,0,0,.781.781H6.245a.781.781,0,0,0,.781-.781V166.781A.781.781,0,0,0,6.245,166Zm-.781,15.613h-3.9V167.561h3.9Z" transform="translate(0 -166)" fill="#708090"/>
    </g>
    <g id="Group_43" data-name="Group 43" transform="translate(0 16)">
      <path id="Path_37" data-name="Path 37" d="M3.513,16a3.514,3.514,0,1,0,3.513,3.514A3.517,3.517,0,0,0,3.513,16Zm0,5.27a1.864,1.864,0,0,1-1.952-1.757,1.864,1.864,0,0,1,1.952-1.757,1.864,1.864,0,0,1,1.952,1.757A1.864,1.864,0,0,1,3.513,21.27Z" transform="translate(0 -16)" fill="#708090"/>
    </g>
  </g>
</svg>
