<svg xmlns="http://www.w3.org/2000/svg" width="16.386" height="11.47" viewBox="0 0 16.386 11.47">
  <path id="signal-stream" d="M13.093,14.455a.819.819,0,0,1-.583-1.393,3.3,3.3,0,0,0,0-4.649.819.819,0,1,1,1.165-1.152,4.933,4.933,0,0,1,0,6.953.819.819,0,0,1-.583.241Zm-5.225-.237a.819.819,0,0,0,.007-1.158,3.3,3.3,0,0,1,0-4.649A.819.819,0,1,0,6.71,7.259a4.933,4.933,0,0,0,0,6.953.819.819,0,0,0,1.158.007ZM16.282,16.2a8.151,8.151,0,0,0,0-10.931.819.819,0,1,0-1.215,1.1,6.513,6.513,0,0,1,0,8.732.819.819,0,1,0,1.215,1.1Zm-11.021.057A.819.819,0,0,0,5.319,15.1a6.513,6.513,0,0,1,0-8.732A.819.819,0,1,0,4.1,5.27,8.151,8.151,0,0,0,4.1,16.2a.819.819,0,0,0,1.157.057Zm4.932-6.752a1.229,1.229,0,1,0,1.229,1.229,1.229,1.229,0,0,0-1.229-1.229Z" transform="translate(-2 -5)" fill="#f8f9fa"/>
</svg>
