<svg xmlns="http://www.w3.org/2000/svg" xmlns:xlink="http://www.w3.org/1999/xlink" width="105.049" height="28.065" viewBox="0 0 105.049 28.065">
  <defs>
    <clipPath id="clip-path">
      <rect id="Rectangle_5" data-name="Rectangle 5" width="79.824" height="28.065" fill="none"/>
    </clipPath>
    <clipPath id="clip-path-2">
      <rect id="Rectangle_7" data-name="Rectangle 7" width="23.66" height="23.654" fill="none"/>
    </clipPath>
  </defs>
  <g id="Group_131" data-name="Group 131" transform="translate(-324.664 -21.663)">
    <g id="Group_2" data-name="Group 2" transform="translate(349.889 21.663)">
      <g id="Group_1" data-name="Group 1" transform="translate(0 0)" clip-path="url(#clip-path)">
        <path id="Path_1" data-name="Path 1" d="M6.278,21.171V3.755H0V2.215A2.148,2.148,0,0,1,.646.646,2.14,2.14,0,0,1,2.217,0H16.862V3.755H10.646V21.171Z" transform="translate(0 0.001)" fill="#3fbd91"/>
        <path id="Path_2" data-name="Path 2" d="M17.85,17.859a7.548,7.548,0,0,1-2.737.833,24.979,24.979,0,0,1-2.555.155,6.439,6.439,0,0,1-3.876-1.2,4.562,4.562,0,0,1-1.663-3.969A4.282,4.282,0,0,1,8.527,9.983,8.71,8.71,0,0,1,12.373,8.5a3.43,3.43,0,0,0,.739-.091A9.621,9.621,0,0,1,14.1,8.26q2.705-.37,2.708-1.6a1.165,1.165,0,0,0-.953-1.2A6.327,6.327,0,0,0,14.1,5.183a4.539,4.539,0,0,0-1.54.244,1.687,1.687,0,0,0-.983.924H7.45A4.734,4.734,0,0,1,9.172,3.215,7.1,7.1,0,0,1,13.913,1.8a9.276,9.276,0,0,1,5.169,1.168,3.953,3.953,0,0,1,1.784,3.449v5.6a7.066,7.066,0,0,1-.892,3.848,5.432,5.432,0,0,1-2.124,2m-.983-7.569a11.7,11.7,0,0,1-2.4.8L13.05,11.4a3.642,3.642,0,0,0-1.6.8,2.507,2.507,0,0,0-.431,1.355,2,2,0,0,0,.554,1.478,2.33,2.33,0,0,0,1.6.49,3.662,3.662,0,0,0,2.708-.983,3.657,3.657,0,0,0,.986-2.708Z" transform="translate(10.274 2.633)" fill="#3fbd91"/>
        <path id="Path_3" data-name="Path 3" d="M12.89,18.32V10.379A10.135,10.135,0,0,1,13.6,6.351a6.7,6.7,0,0,1,1.939-2.619,7.613,7.613,0,0,1,2.74-1.353,12.086,12.086,0,0,1,3.23-.431h.616V6.319H20.705a3.6,3.6,0,0,0-2.646.862,3.7,3.7,0,0,0-.86,2.705V18.32Z" transform="translate(18.868 2.852)" fill="#3fbd91"/>
        <path id="Path_4" data-name="Path 4" d="M27.866,17.551V16.507A4.716,4.716,0,0,1,24.88,18.66a6.108,6.108,0,0,1-3.723-.308,6.928,6.928,0,0,1-3.173-2.737,9.415,9.415,0,0,1-1.323-5.263,10.139,10.139,0,0,1,1.757-6.187Q20.169,1.8,24.05,1.8a10.02,10.02,0,0,1,5.474,1.6Q32.048,5,32.05,9.305v8.677q0,4.309-2.525,5.879A10.18,10.18,0,0,1,24.05,25.43q-5.662,0-7.019-5.292h4.494a3.436,3.436,0,0,0,3.54,1.569,3.346,3.346,0,0,0,1.845-1.2,5,5,0,0,0,.956-2.954m-7.017-7.076q0,4.243,2.461,4.708a3.352,3.352,0,0,0,3.632-1.141,4.6,4.6,0,0,0,.8-2.121,8.922,8.922,0,0,0,.032-2.86,5.714,5.714,0,0,0-1.015-2.525,2.709,2.709,0,0,0-2.341-1.109,2.833,2.833,0,0,0-2.828,1.54,8,8,0,0,0-.739,3.508" transform="translate(24.388 2.633)" fill="#3fbd91"/>
        <path id="Path_5" data-name="Path 5" d="M34.809,13.491h3.077a6.73,6.73,0,0,1-2.584,3.94,7.837,7.837,0,0,1-4.8,1.417,6.868,6.868,0,0,1-5.479-2.279,9.23,9.23,0,0,1-1.966-6.337,9.136,9.136,0,0,1,1.9-6.155A6.861,6.861,0,0,1,30.441,1.8a7.372,7.372,0,0,1,5.723,2.217,9.375,9.375,0,0,1,1.969,6.339v.675a1.043,1.043,0,0,1-.062.431H27.425a4.257,4.257,0,0,0,.921,2.831,2.912,2.912,0,0,0,2.4.986,3.5,3.5,0,0,0,1.784-.431.852.852,0,0,0,.338-.217c.1-.1.217-.214.34-.338a1.342,1.342,0,0,1,.461-.493,1.84,1.84,0,0,1,1.138-.308m-7.384-4.8H33.7a4,4,0,0,0-.862-2.461,2.961,2.961,0,0,0-2.279-.862,3,3,0,0,0-2.215.862,3.548,3.548,0,0,0-.921,2.461" transform="translate(33.75 2.633)" fill="#3fbd91"/>
        <path id="Path_6" data-name="Path 6" d="M36.421,21.171a32.449,32.449,0,0,1-4.4-.062q-2.369-.185-2.37-3.016V0h2.215a1.956,1.956,0,0,1,1.419.613A2.019,2.019,0,0,1,33.9,2.092V4.861h2.523v.86a1.987,1.987,0,0,1-.616,1.51,2.067,2.067,0,0,1-1.478.584H33.9v9.109c0,.7.411,1.047,1.232,1.047h1.291Z" transform="translate(43.402 0.001)" fill="#3fbd91"/>
      </g>
    </g>
    <g id="Group_4" data-name="Group 4" transform="translate(324.664 21.663)">
      <g id="Group_3" data-name="Group 3" transform="translate(0 0)" clip-path="url(#clip-path-2)">
        <path id="Path_7" data-name="Path 7" d="M5.953,14.468a3.124,3.124,0,0,1-.132-.46l.851-.291a4.423,4.423,0,0,1,2.765-5.6l-.291-.851c.144-.061.3-.118.442-.167l.783,2.311a3.373,3.373,0,0,0-2.107,4.275Z" transform="translate(-1.07 -1.306)" fill="#989898"/>
        <path id="Path_8" data-name="Path 8" d="M7.376,6.552A4.534,4.534,0,0,0,4.759,8.781a4.463,4.463,0,0,0-.268,3.428L.233,13.591c-.09-.274-.168-.563-.233-.842l1.359-.442A6.655,6.655,0,0,1,5.633,3.935L5.2,2.593c.258-.111.526-.2.8-.294Z" transform="translate(0 -0.423)" fill="#3fbd91"/>
        <path id="Path_9" data-name="Path 9" d="M12.95,5.81c.159-.051.312-.095.46-.131l.291.85A4.432,4.432,0,0,1,19.3,9.3l.851-.291c.061.144.117.295.174.446l-2.311.781a3.377,3.377,0,0,0-4.276-2.109Z" transform="translate(-2.38 -1.044)" fill="#989898"/>
        <path id="Path_10" data-name="Path 10" d="M19.888,7.372a4.489,4.489,0,0,0-5.66-2.887L12.843.226c.282-.083.562-.167.848-.226l.443,1.358a6.661,6.661,0,0,1,8.377,4.278L23.845,5.2c.112.258.214.531.3.8Z" transform="translate(-2.36 0)" fill="#3fbd91"/>
        <path id="Path_11" data-name="Path 11" d="M22.231,13.005c.051.158.095.312.14.465l-.859.285a4.407,4.407,0,0,1-2.766,5.6l.291.85c-.144.062-.293.118-.446.175l-.782-2.312a3.369,3.369,0,0,0,1.937-1.7,3.334,3.334,0,0,0,.17-2.573Z" transform="translate(-3.273 -2.391)" fill="#989898"/>
        <path id="Path_12" data-name="Path 12" d="M19.957,19.88a4.439,4.439,0,0,0,2.617-2.227,4.485,4.485,0,0,0,.269-3.427L27.1,12.843a8.41,8.41,0,0,1,.226.848l-1.359.442A6.65,6.65,0,0,1,21.7,22.507l.44,1.334c-.259.11-.53.211-.8.308Z" transform="translate(-3.668 -2.361)" fill="#3fbd91"/>
        <path id="Path_13" data-name="Path 13" d="M14.311,22.129a3.931,3.931,0,0,1-.465.139l-.286-.859a4.409,4.409,0,0,1-5.6-2.768l-.852.291c-.061-.144-.118-.3-.166-.442l2.31-.781a3.377,3.377,0,0,0,4.276,2.109Z" transform="translate(-1.276 -3.255)" fill="#989898"/>
        <path id="Path_14" data-name="Path 14" d="M6.562,19.943a4.481,4.481,0,0,0,5.658,2.886l1.384,4.26a7.652,7.652,0,0,1-.84.23l-.445-1.357a6.666,6.666,0,0,1-8.375-4.277L2.6,22.118c-.112-.258-.214-.53-.3-.793Z" transform="translate(-0.423 -3.666)" fill="#3fbd91"/>
        <path id="Path_15" data-name="Path 15" d="M12.489,10.6l.962-.289a2.959,2.959,0,0,1,3.7,1.947l.289.964a2.952,2.952,0,0,1-1.953,3.688l-.955.3a2.969,2.969,0,0,1-3.69-1.956l-.3-.954A2.956,2.956,0,0,1,12.489,10.6" transform="translate(-1.913 -1.872)" fill="#3fbd91" fill-rule="evenodd"/>
      </g>
    </g>
  </g>
</svg>
