<svg xmlns="http://www.w3.org/2000/svg" width="15.963" height="15.951" viewBox="0 0 15.963 15.951">
  <g id="Group_18" data-name="Group 18" transform="translate(-4.003 -4.049)">
    <path id="Path_21" data-name="Path 21" d="M12.863,15.036a3.131,3.131,0,1,1,2.128-2.128,3.982,3.982,0,0,1,3.968.5,1.461,1.461,0,0,0-.456-2.85.69.69,0,0,1-.662-.465c-.123-.55-.733-1.138-.211-1.657a1.463,1.463,0,0,0-2.074-2.063c-.508.515-1.109-.094-1.649-.217a.686.686,0,0,1-.465-.662,1.464,1.464,0,1,0-2.927.029c0,.714-.855.684-1.315.987a.691.691,0,0,1-.8-.14A1.462,1.462,0,0,0,6.333,8.446a.693.693,0,0,1,.137.8c-.3.466-.289,1.318-1.016,1.315a1.462,1.462,0,1,0,.029,2.924c.714,0,.684.857.987,1.315a.692.692,0,0,1-.143.8A1.462,1.462,0,1,0,8.4,17.674c.514-.519,1.109.086,1.655.211a.69.69,0,0,1,.465.665,1.464,1.464,0,0,0,2.85.454A4.023,4.023,0,0,1,12.863,15.036Z" fill="#007efc"/>
    <path id="Path_22" data-name="Path 22" d="M39.4,36.022a3.423,3.423,0,1,0,3.423,3.423A3.428,3.428,0,0,0,39.4,36.022Zm-.068,1.426a.422.422,0,1,1-.422.422.422.422,0,0,1,.422-.422Zm.479,3.994h-.822a.285.285,0,1,1,0-.571h.126V39.223c-.2.024-.406-.056-.411-.285.013-.376.45-.272.7-.285a.284.284,0,0,1,.285.285v1.934h.126a.285.285,0,1,1,0,.571Z" transform="translate(-22.861 -22.858)" fill="#007efc"/>
  </g>
</svg>
