<svg xmlns="http://www.w3.org/2000/svg" width="29.605" height="25.051" viewBox="0 0 29.605 25.051">
  <g id="Group_45" data-name="Group 45" transform="translate(-6 -10)">
    <path id="path4" d="M20.416,26a3.416,3.416,0,1,0,3.416,3.416A3.418,3.418,0,0,0,20.416,26Zm0,1.139a2.277,2.277,0,1,1-2.277,2.277A2.278,2.278,0,0,1,20.416,27.139Z" transform="translate(-4.737 -6.891)" fill="#708090" fill-rule="evenodd"/>
    <path id="path8" d="M33.28,43.313a19.623,19.623,0,0,1-7.73,1.51,19.623,19.623,0,0,1-7.73-1.51.569.569,0,1,0-.452,1.045,20.764,20.764,0,0,0,8.182,1.6,20.764,20.764,0,0,0,8.182-1.6.569.569,0,1,0-.452-1.045Z" transform="translate(-4.748 -14.326)" fill="#708090" fill-rule="evenodd"/>
    <path id="path12" d="M16.39,30.54a26.791,26.791,0,0,1-1.307,3.288A19.4,19.4,0,0,1,7.189,30.11q-.05-.94-.05-1.9a29.13,29.13,0,0,1,4.022-15.383,22.558,22.558,0,0,1,5.52-1.62q.318,1.1.561,2.267a.569.569,0,0,0,.635.448,21.649,21.649,0,0,1,5.853,0,.569.569,0,0,0,.635-.448q.243-1.163.561-2.267a22.551,22.551,0,0,1,5.519,1.62,29.123,29.123,0,0,1,4.023,15.384q0,.959-.05,1.9a19.394,19.394,0,0,1-7.894,3.719,26.792,26.792,0,0,1-1.307-3.288c-.1-.3-1.18.053-1.083.352A27.583,27.583,0,0,0,25.7,34.737a.569.569,0,0,0,.628.3,20.586,20.586,0,0,0,9.013-4.216.571.571,0,0,0,.2-.4q.065-1.092.065-2.211a30.177,30.177,0,0,0-4.288-16.135.567.567,0,0,0-.246-.215,23.78,23.78,0,0,0-6.47-1.855.569.569,0,0,0-.625.4q-.346,1.13-.615,2.326a22.876,22.876,0,0,0-5.116,0q-.268-1.195-.615-2.326a.569.569,0,0,0-.625-.4,23.78,23.78,0,0,0-6.47,1.855.567.567,0,0,0-.246.215A30.177,30.177,0,0,0,6,28.211q0,1.118.065,2.211a.571.571,0,0,0,.2.4,20.586,20.586,0,0,0,9.013,4.216.569.569,0,0,0,.628-.3,27.583,27.583,0,0,0,1.567-3.845c.1-.3-.986-.651-1.083-.352Z" transform="translate(0)" fill="#708090" fill-rule="evenodd"/>
    <path id="path16" d="M38.416,26a3.416,3.416,0,1,0,3.416,3.416A3.418,3.418,0,0,0,38.416,26Zm0,1.139a2.277,2.277,0,1,1-2.277,2.277A2.278,2.278,0,0,1,38.416,27.139Z" transform="translate(-12.489 -6.891)" fill="#708090" fill-rule="evenodd"/>
  </g>
</svg>
