<svg xmlns="http://www.w3.org/2000/svg" width="29.642" height="24.981" viewBox="0 0 29.642 24.981">
  <g id="Layer_2" transform="translate(-2.501 -9.969)">
    <path id="Path_40" data-name="Path 40" d="M32.142,22.331a3.367,3.367,0,0,0-5.632-2.468,16.909,16.909,0,0,0-9.666-2.483l2.094-6.39,5.737,1.351a2.779,2.779,0,1,0,2.71-2.158,2.774,2.774,0,0,0-2.339,1.284L18.735,9.981a.468.468,0,0,0-.552.31l-2.337,7.133a15.893,15.893,0,0,0-7.765,2.393A3.357,3.357,0,1,0,4.1,25.189c-1.169,12.986,27.385,13.022,26.342.066a3.334,3.334,0,0,0,1.705-2.924ZM10.788,24.576A2.1,2.1,0,0,1,12.862,22.5a2.058,2.058,0,1,1-2.074,2.074ZM22.1,30.392c-1.715,1.983-7.841,1.984-9.555,0a.554.554,0,0,1,.784-.783c1.3,1.549,6.688,1.548,7.989,0A.554.554,0,0,1,22.1,30.392Zm-.287-3.773a2.059,2.059,0,1,1,2.042-2.042A2.042,2.042,0,0,1,21.811,26.619Z" transform="translate(0)" fill="#708090"/>
  </g>
</svg>
